# xmcd CD database file
#
# Track frame offsets:
#	150
#	45665
#	65130
#	77253
#	101003
#	123113
#	142735
#	172850
#	189903
#	217603
#	239858
#	270473
#
# Disc length: 3981 seconds
#
# Revision: 0
# Processed by: cddbd v1.5.1PL2 Copyright (c) Steve Scherf et al.
# Submitted via: CDex 1.51
#
DISCID=960f8b0c
DTITLE=Sonny Rollins and John Coltrane - EX-012
DYEAR=1900
DGENRE=Jazz
TTITLE0=Moritat
TTITLE1=Say it(Over and Oover again)
TTITLE2=On a slowboat to China
TTITLE3=You don't know what love is
TTITLE4=I've grown accustomed to her face
TTITLE5=Autumn serenade
TTITLE6=In the chapel in the moonlight
TTITLE7=What's new
TTITLE8=My reverie
TTITLE9=My one and only love
TTITLE10=St. Thomas
TTITLE11=Violets for your furs
EXTD=
EXTT0=
EXTT1=
EXTT2=
EXTT3=
EXTT4=
EXTT5=
EXTT6=
EXTT7=
EXTT8=
EXTT9=
EXTT10=
EXTT11=
PLAYORDER=
